Coordinates
version=1
nRows=6
nColumns=107
inDegrees=yes

Units are S.I. units (second, meters, Newtons, ...)
If the header above contains a line with 'inDegrees', this indicates whether rotational values are in degrees (yes) or radians (no).

endheader
time	sternoclavicular_r2	sternoclavicular_r3	unrotscap_r3	unrotscap_r2	acromioclavicular_r2	acromioclavicular_r3	acromioclavicular_r1	unrothum_r1	unrothum_r3	unrothum_r2	elv_angle	shoulder_elv	shoulder1_r2	shoulder_rot	elbow_flexion	pro_sup	deviation	flexion	proximal_distal_r1	proximal_distal_r3	cmc_flexion	cmc_abduction	mp_flexion	ip_flexion	mcp2_flexion	mcp2_abduction	pm2_flexion	md2_flexion	mcp3_flexion	mcp3_abduction	pm3_flexion	md3_flexion	mcp4_flexion	mcp4_abduction	pm4_flexion	md4_flexion	mcp5_flexion	mcp5_abduction	pm5_flexion	md5_flexion	bicpt_tx	bicpt_ty	bicpt_tz	bicpt2_tx	bicpt2_ty	bicpt2_tz	ptpt_tx	ptpt_ty	ptpt_tz	FCUpt_tx	FCUpt_ty	FCUpt_tz	EDCpt_tx	EDCpt_ty	EDCpt_tz	APLpt_tx	APLpt_ty	APLpt_tz	FPLpt_tx	FPLpt_ty	FPLpt_tz	FPLpt2_tx	FPLpt2_ty	FPLpt2_tz	PEC1pt2_tx	PEC1pt2_ty	PEC1pt2_tz	PEC1pt3_tx	PEC1pt3_ty	PEC1pt3_tz	PEC2pt2_tx	PEC2pt2_ty	PEC2pt2_tz	PEC2pt3_tx	PEC2pt3_ty	PEC2pt3_tz	PEC3pt2_tx	PEC3pt2_ty	PEC3pt2_tz	PEC3pt3_tx	PEC3pt3_ty	PEC3pt3_tz	DELT2pt2a_tx	DELT2pt2a_ty	DELT2pt2a_tz	DELT2pt2_tx	DELT2pt2_ty	DELT2pt2_tz	LAT1pt2_tx	LAT1pt2_ty	LAT1pt2_tz	LAT1pt3_tx	LAT1pt3_ty	LAT1pt3_tz	LAT2pt2_tx	LAT2pt2_ty	LAT2pt2_tz	LAT2pt3_tx	LAT2pt3_ty	LAT2pt3_tz	LAT3pt2_tx	LAT3pt2_ty	LAT3pt2_tz	LAT3pt3_tx	LAT3pt3_ty	LAT3pt3_tz
      1.16666667	     -0.35503927	      0.15037788	     -0.15037788	      0.35503927	     -0.07188823	      0.58097538	      0.26114444	     -0.26114444	     -0.58097538	      0.07188823	     94.09059778	     84.05870198	     -1.64219073	     18.75151896	     26.66943524	    -49.48768690	      0.40892160	      1.06499120	      0.41809603	      0.53249560	     20.81769996	    -18.28134568	    -11.43931749	     -7.63880593	      7.54851189	      5.99407038	     36.77334451	      0.97488851	     22.33923821	      2.24512004	     29.09889609	     22.13157876	     33.37640774	     -5.53404734	     18.60740424	     23.25536811	     37.98352242	    -14.13047687	      3.74021028	      5.12020728	      0.00078214	     -0.03065672	     -0.00479236	      0.00724705	     -0.01744488	     -0.01140897	      0.01120658	     -0.06253559	      0.00393650	      0.00000653	     -0.18421969	      0.00326419	      0.00593851	     -0.00102422	     -0.00138122	     -0.00203948	     -0.00081579	     -0.00407895	     -0.00261053	     -0.00783159	     -0.00440527	      0.00000982	     -0.00027968	     -0.00033561	      0.00275526	      0.00966676	      0.00672470	     -0.00901297	      0.02176188	     -0.02064110	      0.00275526	      0.00966676	      0.00672470	      0.00060709	      0.02017411	     -0.01060075	      0.00423525	      0.00537556	      0.01662577	      0.00000000	      0.00946447	      0.00000000	     -0.00789218	     -0.03647217	     -0.00781183	     -0.01862829	     -0.00143815	     -0.00523636	     -0.00098069	      0.01643816	     -0.00672470	      0.00270856	      0.02372325	     -0.01961371	     -0.00658460	      0.01424329	     -0.00602421	     -0.01372960	      0.03007436	     -0.03367021	     -0.02577802	      0.01592447	     -0.00807898	     -0.01709195	      0.03474429	     -0.04207609
      1.20000000	     -0.35493302	      0.15033287	     -0.15033287	      0.35493302	     -0.07186672	      0.58080152	      0.26106629	     -0.26106629	     -0.58080152	      0.07186672	     94.08920703	     84.03354652	     -1.64216645	     18.50467656	     26.39282790	    -47.51977900	      0.41102371	      1.09943794	      0.41953807	      0.54971897	     20.97413850	    -20.18695160	    -10.95022249	     -7.39932493	      5.12323303	      5.35918412	     38.54001245	      2.06534101	     20.80091304	      1.84840753	     29.15503704	     22.30132502	     32.58253253	     -5.58438969	     16.88664798	     22.87487943	     39.35844549	    -14.11943741	     -2.99252474	      5.14521531	      0.00077299	     -0.03062502	     -0.00478725	      0.00764915	     -0.01736974	     -0.01144308	      0.01106118	     -0.06262962	      0.00377797	      0.00015090	     -0.18422820	      0.00311907	      0.00570236	     -0.00099792	     -0.00130096	     -0.00213716	     -0.00085486	     -0.00427432	     -0.00273556	     -0.00820669	     -0.00461626	      0.00000944	     -0.00027996	     -0.00033595	      0.00275444	      0.00966387	      0.00672269	     -0.00901027	      0.02175537	     -0.02063492	      0.00275444	      0.00966387	      0.00672269	      0.00060691	      0.02016807	     -0.01059757	      0.00423437	      0.00537395	      0.01662389	      0.00000000	      0.00945876	      0.00000000	     -0.00788982	     -0.03646125	     -0.00780710	     -0.01835829	     -0.00139930	     -0.00510438	     -0.00098039	      0.01643324	     -0.00672269	      0.00270775	      0.02371615	     -0.01960784	     -0.00658263	      0.01423903	     -0.00602241	     -0.01372549	      0.03006536	     -0.03366013	     -0.02577031	      0.01591970	     -0.00807656	     -0.01708684	      0.03473390	     -0.04206349
      1.23333333	     -0.35496813	      0.15034775	     -0.15034775	      0.35496813	     -0.07187383	      0.58085898	      0.26109211	     -0.26109211	     -0.58085898	      0.07187383	     94.05087513	     84.04186005	     -1.64149744	     18.77566027	     26.18857500	    -47.11773717	      0.41457218	      1.09694523	      0.42195606	      0.54847262	     20.96632208	    -20.26289987	    -10.95014689	     -7.39660304	      5.09668374	      5.31097556	     38.54737684	      2.07090101	     20.70368222	      1.78589180	     29.12518685	     22.29070663	     32.48041901	     -5.64363035	     16.83408693	     22.86200730	     39.28205613	    -14.22734817	     -3.08892700	      5.12419768	      0.00076624	     -0.03060161	     -0.00478348	      0.00773023	     -0.01731425	     -0.01144938	      0.01103147	     -0.06264882	      0.00374559	      0.00018055	     -0.18422981	      0.00308977	      0.00565412	     -0.00099240	     -0.00128482	     -0.00213002	     -0.00085201	     -0.00426005	     -0.00272643	     -0.00817929	     -0.00460085	      0.00000946	     -0.00027994	     -0.00033593	      0.00275471	      0.00966482	      0.00672335	     -0.00901116	      0.02175752	     -0.02063696	      0.00275471	      0.00966482	      0.00672335	      0.00060697	      0.02017006	     -0.01059862	      0.00423466	      0.00537448	      0.01662451	      0.00000000	      0.00946065	      0.00000000	     -0.00789060	     -0.03646486	     -0.00780866	     -0.01865473	     -0.00144198	     -0.00524935	     -0.00098049	      0.01643487	     -0.00672335	      0.00270802	      0.02371850	     -0.01960978	     -0.00658328	      0.01424044	     -0.00602301	     -0.01372685	      0.03006834	     -0.03366346	     -0.02577286	      0.01592128	     -0.00807736	     -0.01708853	      0.03473733	     -0.04206766
      1.26666667	     -0.35479943	      0.15027629	     -0.15027629	      0.35479943	     -0.07183967	      0.58058293	      0.26096803	     -0.26096803	     -0.58058293	      0.07183967	     94.02760256	     84.00191946	     -1.64109125	     18.61581849	     26.05155658	    -45.86649667	      0.41451169	      1.10200199	      0.42191490	      0.55100099	     21.32174901	    -21.59286788	    -10.40272589	     -7.42910463	      3.44260795	      4.84395978	     39.96334436	      3.20308436	     19.39843334	      1.53363056	     29.79736573	     22.66111368	     32.18285010	     -5.65007898	     15.59512970	     23.22809984	     41.71845256	    -14.22419815	    -10.82722161	      5.17338897	      0.00076170	     -0.03058591	     -0.00478095	      0.00798015	     -0.01727703	     -0.01146755	      0.01093902	     -0.06270861	      0.00364479	      0.00027312	     -0.18423451	      0.00299939	      0.00550397	     -0.00097490	     -0.00123514	     -0.00214451	     -0.00085780	     -0.00428901	     -0.00274497	     -0.00823491	     -0.00463214	      0.00000860	     -0.00028050	     -0.00033660	      0.00275340	      0.00966023	      0.00672016	     -0.00900688	      0.02174718	     -0.02062716	      0.00275340	      0.00966023	      0.00672016	      0.00060668	      0.02016048	     -0.01059358	      0.00423327	      0.00537193	      0.01662153	      0.00000000	      0.00945158	      0.00000000	     -0.00788685	     -0.03644753	     -0.00780115	     -0.01847977	     -0.00141673	     -0.00516360	     -0.00098002	      0.01642706	     -0.00672016	      0.00270673	      0.02370723	     -0.01960046	     -0.00658016	      0.01423367	     -0.00602014	     -0.01372033	      0.03005405	     -0.03364746	     -0.02576061	      0.01591371	     -0.00807352	     -0.01708040	      0.03472082	     -0.04204766
      1.30000000	     -0.35481586	      0.15028325	     -0.15028325	      0.35481586	     -0.07184299	      0.58060981	      0.26098011	     -0.26098011	     -0.58060981	      0.07184299	     93.93583516	     84.00580846	     -1.63948961	     18.70249202	     26.03662190	    -45.40423115	      0.41641263	      1.09913360	      0.42320212	      0.54956680	     21.64839017	    -22.18562533	    -10.22335428	     -7.38996923	      2.95473521	      4.51928370	     39.85532915	      3.20602919	     19.12556831	      1.48603885	     29.61304012	     22.59044084	     32.05387787	     -5.65613210	     15.38524782	     23.20050777	     41.47937414	    -14.30615466	    -11.43970481	      5.07865128	      0.00076121	     -0.03058419	     -0.00478068	      0.00807159	     -0.01727298	     -0.01147371	      0.01090486	     -0.06273069	      0.00360755	      0.00030744	     -0.18423613	      0.00296629	      0.00544849	     -0.00096832	     -0.00121700	     -0.00213629	     -0.00085451	     -0.00427257	     -0.00273445	     -0.00820334	     -0.00461438	      0.00000782	     -0.00028085	     -0.00033703	      0.00275353	      0.00966068	      0.00672047	     -0.00900730	      0.02174819	     -0.02062811	      0.00275353	      0.00966068	      0.00672047	      0.00060671	      0.02016141	     -0.01059407	      0.00423340	      0.00537218	      0.01662182	      0.00000000	      0.00945246	      0.00000000	     -0.00788722	     -0.03644922	     -0.00780188	     -0.01857459	     -0.00143038	     -0.00520998	     -0.00098007	      0.01642782	     -0.00672047	      0.00270686	      0.02370833	     -0.01960137	     -0.00658046	      0.01423433	     -0.00602042	     -0.01372096	      0.03005544	     -0.03364902	     -0.02576180	      0.01591445	     -0.00807390	     -0.01708120	      0.03472243	     -0.04204961
      1.33333333	     -0.35470212	      0.15023508	     -0.15023508	      0.35470212	     -0.07181996	      0.58042369	      0.26089645	     -0.26089645	     -0.58042369	      0.07181996	     93.91724270	     83.97887984	     -1.63916511	     18.78866144	     25.85433845	    -45.30935350	      0.41794817	      1.09814784	      0.42423716	      0.54907392	     21.67519030	    -22.22765097	    -10.20161349	     -7.38338137	      2.92536182	      4.50382348	     39.85174592	      3.20701967	     19.08499732	      1.47935749	     29.59486751	     22.58542874	     32.02004872	     -5.65566641	     15.36170274	     23.19532214	     41.42207878	    -14.35666348	    -11.49736587	      5.06525763	      0.00075518	     -0.03056330	     -0.00477731	      0.00809027	     -0.01722346	     -0.01147493	      0.01089785	     -0.06273522	      0.00359991	      0.00031449	     -0.18423646	      0.00295953	      0.00543711	     -0.00096695	     -0.00121330	     -0.00213346	     -0.00085339	     -0.00426693	     -0.00273083	     -0.00819250	     -0.00460828	      0.00000775	     -0.00028087	     -0.00033705	      0.00275264	      0.00965758	      0.00671832	     -0.00900441	      0.02174122	     -0.02062150	      0.00275264	      0.00965758	      0.00671832	      0.00060651	      0.02015495	     -0.01059068	      0.00423246	      0.00537046	      0.01661981	      0.00000000	      0.00944635	      0.00000000	     -0.00788469	     -0.03643753	     -0.00779682	     -0.01866898	     -0.00144405	     -0.00525638	     -0.00097975	      0.01642255	     -0.00671832	      0.00270599	      0.02370073	     -0.01959509	     -0.00657835	      0.01422977	     -0.00601849	     -0.01371656	      0.03004580	     -0.03363824	     -0.02575354	      0.01590935	     -0.00807131	     -0.01707572	      0.03471130	     -0.04203613
